<svg id="Layer_1" enable-background="new 0 0 512 512" height="512" viewBox="0 0 512 512" width="512" xmlns="http://www.w3.org/2000/svg"><g><g><path d="m417.124 278.73-67.539-43.621c-4.733-3.037-8.115-7.78-9.444-13.245l-21.908-90.091c-2.855-11.742 4.348-23.575 16.09-26.43 11.743-2.854 23.575 4.348 26.431 16.09l19.838 81.578 60.165 38.889c10.171 6.526 13.124 20.061 6.598 30.231-6.495 10.122-20.016 13.153-30.231 6.599z" fill="#753419"/></g><g id="XMLID_2466_"><path d="m24.702 336.669c-3.591-14.049 4.886-28.349 18.935-31.94l93.167-23.815 37.454-64.304 33.439 2.02 9.58 29.221-40.788 69.14c-3.548 6.014-9.347 10.368-16.112 12.097l-103.735 26.516c-14.108 3.607-28.363-4.944-31.94-18.935z" fill="#748488"/></g><g id="XMLID_2465_"><path d="m195.829 478.823c-12.859-6.701-17.853-22.557-11.153-35.416l56.355-108.159 2.22-89.268c.361-14.496 12.417-25.943 26.9-25.595 14.496.361 25.955 12.404 25.595 26.9l-2.371 95.351c-.099 4.002-1.113 7.929-2.963 11.479l-59.167 113.556c-6.667 12.797-22.498 17.882-35.416 11.152z" fill="#55696e"/></g><path d="m365.545 106.129-37.896-26.222c-21.959-15.195-52.079-9.711-67.273 12.248l-86.117 124.455 67.922 49.325c17.661 12.825 42.42 8.577 54.795-9.402l75.881-110.24c9.072-13.11 5.798-31.092-7.312-40.164z" fill="#e64937"/><ellipse cx="387.301" cy="45.906" fill="#80391b" rx="45.901" ry="45.901" transform="matrix(.179 -.984 .984 .179 272.796 418.73)"/><g><path d="m463.317 211.166-84.981-11.453c-5.291-.713-10.139-3.336-13.63-7.375l-18.579-21.495 8.194-24.57 24.436-4.596 13.636 15.776 76.77 10.347c11.975 1.614 20.374 12.63 18.761 24.606-1.615 11.975-12.633 20.374-24.607 18.76z" fill="#80391b"/></g><g><path d="m378.757 141.676-36.024-41.676c-7.904-9.142-21.721-10.147-30.86-2.245-9.142 7.902-10.148 21.719-2.245 30.861l36.499 42.226z" fill="#cf4231"/></g><path d="m333.513 441.741h-80.04c-7.395 0-13.39 5.995-13.39 13.389v14.423c0 7.395 5.995 13.39 13.39 13.39h80.04c7.395 0 13.389-5.995 13.389-13.39v-14.423c0-7.394-5.995-13.389-13.389-13.389z" fill="#6c9baa"/><g><path d="m450.679 496.899c0 8.34-6.761 15.101-15.101 15.101h-351.347c-8.34 0-15.101-6.761-15.101-15.101s6.761-15.101 15.101-15.101h351.348c8.339 0 15.1 6.761 15.1 15.101z" fill="#46738c"/></g></g></svg>