<svg width="65px" height="60px" viewBox="0 0 65 60" version="1.1" xmlns="http://www.w3.org/2000/svg" xmlns:xlink="http://www.w3.org/1999/xlink">
                            <title>Group 3</title>
                            <desc>Created with Sketch.</desc>
                            <g id="Wireframe" stroke="none" stroke-width="1" fill="none" fill-rule="evenodd">
                               <g id="Wireframe-//-Attorneys" transform="translate(-131.000000, -1114.000000)">
                                  <g id="Group-3" transform="translate(131.000000, 1114.000000)">
                                     <g id="noun_timer_62332_000000" fill="#133D8D">
                                        <path d="M35.645863,0.0108762644 C35.5827826,0.00543813218 35.5164394,0 35.4522714,0 C33.7219108,0 32.5277336,1.40086285 32.5277336,3.12801363 C32.5277336,4.83232426 33.1889902,6.21687271 35.7894252,6.25167676 L35.7894252,6.26255302 C48.137957,6.43222275 58.9442818,16.9821992 58.9442818,29.9260414 C58.9442818,42.976471 48.226052,53.7450604 35.1760228,53.7450604 C22.7241697,53.7450604 12.3724588,44.347968 11.4654062,31.9979698 L16.9621016,31.9979698 L8.47996319,17.9001559 L0,31.9979698 L5.20087007,31.9979698 C6.12206141,47.5967081 19.1666527,60 35.0727014,60 C51.5747511,60 65,46.5079941 65,30 C64.9989124,13.6943045 51.8825399,0.323025052 35.645863,0.0108762644 Z" id="Path"></path>
                                     </g>
                                     <g id="noun_dollar-sign_1819874_000000" transform="translate(27.000000, 17.000000)" fill="#3DB200">
                                        <path d="M8.9549988,7.1188 C11.1258069,7.1188 13.3791853,7.81328889 14.3153861,8.13857778 C14.5658289,8.22553333 14.842075,8.18653333 14.9932514,7.95715556 L16.9333485,5.01771111 C17.0851321,4.78833333 16.9630981,4.59275556 16.7144767,4.50233333 C15.7172588,4.14093333 13.1915808,3.31731111 10.3711392,3.09053333 L10.3711392,0.494288889 C10.3711392,0.166688889 10.195981,0 9.85143236,0 L7.1490783,0 C6.80452968,0 6.62937148,0.166688889 6.62937148,0.494288889 L6.62937148,3.20753333 C2.38186104,3.88786667 0.420514203,6.42951111 0.420514203,8.81717778 C0.420514203,11.7300444 2.88335384,13.7953111 7.74042695,14.9557778 C11.3665356,15.8218667 11.3665356,16.7754889 11.3665356,17.1828222 C11.3665356,18.6610667 9.28588691,18.8812 8.04520829,18.8812 C5.87166807,18.8812 3.61555761,18.1855556 2.67844607,17.8594 C2.42769967,17.7718667 2.15236434,17.8114444 2.0014915,18.0411111 L0.0662514325,20.982 C-0.0849249682,21.2110889 0.0371089938,21.4078222 0.285730424,21.4976667 C1.28325181,21.8590667 3.80892983,22.6829778 6.62937148,22.9094667 L6.62937148,25.5057111 C6.62937148,25.8333111 6.80452968,26 7.1490783,26 L9.85143236,26 C10.195981,26 10.3711392,25.8333111 10.3711392,25.5057111 L10.3711392,22.7921778 C14.6180425,22.1115556 16.5796929,19.5702 16.5796929,17.1825333 C16.5796929,14.2699556 14.1168533,12.2046889 9.25947657,11.0439333 C5.63367149,10.1778444 5.63367149,9.22393333 5.63367149,8.81688889 C5.63367149,7.33951111 7.71462375,7.1188 8.9549988,7.1188 Z" id="Path"></path>
                                     </g>
                                  </g>
                               </g>
                            </g>
                         </svg>