<svg width="35px" height="58px" viewBox="0 0 35 58" version="1.1" xmlns="http://www.w3.org/2000/svg" xmlns:xlink="http://www.w3.org/1999/xlink">
                            <title>noun_Time_1554506_000000</title>
                            <desc>Created with Sketch.</desc>
                            <g id="Wireframe" stroke="none" stroke-width="1" fill="none" fill-rule="evenodd">
                               <g id="Wireframe-//-Attorneys" transform="translate(-293.000000, -2554.000000)">
                                  <g id="noun_Time_1554506_000000" transform="translate(293.000000, 2554.000000)">
                                     <path d="M0,0 L0,3.34694589 C0.000554802544,10.883338 3.73232131,17.909935 9.92137927,22.0280541 C12.2306643,23.5653123 13.622881,26.1876153 13.622881,28.9999997 C13.622881,31.8123842 12.2306643,34.4346872 9.92137927,35.9719454 C3.732321,40.0900647 0.000554453215,47.1166622 2.29604121e-15,54.6530546 L0,58 L35,58 L35,54.6530546 C34.9994459,47.1166625 31.26768,40.0900651 25.0786223,35.9719454 C22.7693373,34.4346872 21.3771206,31.8123842 21.3771206,28.9999997 C21.3771206,26.1876153 22.7693373,23.5653123 25.0786223,22.0280541 C31.2676797,17.9099346 34.9994455,10.8833377 35,3.34694589 L35,0 L0,0 Z M2.58511258,2.63636364 L32.4148874,2.63636364 L32.4148874,3.34694589 C32.4137425,9.99246617 29.1225952,16.1881454 23.6648888,19.8190695 C20.6232306,21.8428866 18.789328,25.296219 18.789328,29.0000001 C18.789328,32.7037813 20.6232306,36.1571137 23.6648888,38.1809307 C29.1225953,41.8118549 32.4137426,48.0075343 32.4148874,54.6530546 L32.4148874,55.3636364 L2.58511258,55.3636364 L2.58511258,54.6530546 C2.58625776,48.007534 5.87740565,41.8118545 11.3351127,38.1809307 C14.3767709,36.1571137 16.2106735,32.7037813 16.2106735,29.0000001 C16.2106735,25.296219 14.3767709,21.8428866 11.3351127,19.8190695 C5.87740573,16.1881458 2.58625785,9.99246648 2.58511258,3.34694589 L2.58511258,2.63636364 Z" id="Shape" fill="#133D8D" fill-rule="nonzero"></path>
                                     <path d="M7,12 L29,12 C27.6423505,14.5944363 25.6431645,16.7971609 23.1932882,18.3978974 C19.9533817,20.5148659 18.0000462,24.1265076 18.0000465,28 C18.0000267,24.1264901 16.0466549,20.5148447 12.8067137,18.3978974 C10.3568366,16.7971612 8.35764999,14.5944366 7,12 Z" id="Path" fill="#3DB200"></path>
                                     <polygon id="Path" fill="#3DB200" points="11 54.564225 18.0000469 46.435775 25 54.564225"></polygon>
                                  </g>
                               </g>
                            </g>
                         </svg>