<svg width="74px" height="58px" viewBox="0 0 74 58" version="1.1" xmlns="http://www.w3.org/2000/svg" xmlns:xlink="http://www.w3.org/1999/xlink">
                            <title>easy</title>
                            <desc>Created with Sketch.</desc>
                            <g id="Wireframe" stroke="none" stroke-width="1" fill="none" fill-rule="evenodd">
                               <g id="Wireframe-//-Attorneys" transform="translate(-664.000000, -2555.000000)" fill-rule="nonzero">
                                  <g id="easy" transform="translate(664.000000, 2555.000000)">
                                     <path d="M58.1168217,0.00938769923 C57.3722541,0.0730054887 56.7068494,0.489639879 56.3359454,1.12445999 L35.8202499,35.831085 C35.5886575,36.2170355 35.4811016,36.6622229 35.5115646,37.108772 L36.5326004,49.9785647 C36.5925522,50.7100437 37.0164478,51.3658675 37.6662303,51.7324433 C38.3160128,52.0990191 39.1085291,52.1294361 39.7856679,51.8137878 L51.6819218,46.2616571 C52.1008854,46.0660428 52.4488232,45.7499561 52.6792126,45.3556608 L73.1949081,10.6258051 C73.8225632,9.5606848 73.4508398,8.19951474 72.3638325,7.582587 L59.4465427,0.288155772 C59.0426125,0.0650486857 58.5787284,-0.0322018482 58.1168217,0.00938769923 Z M59.1378575,5.2827504 L68.1134742,10.3470371 L66.1426378,13.6690233 L57.190766,8.58150593 L59.1378575,5.2827504 Z M54.8874993,12.4610283 L57.4282162,13.90133 L43.893556,36.8764653 L41.329094,35.4129329 L54.8874993,12.4610283 Z M61.3698892,16.1082439 L63.863116,17.5253149 L50.2809658,40.4772196 L47.8352289,39.1066099 L61.3698892,16.1082439 Z M40.3318033,40.0126061 L46.7429581,43.636591 L40.8304487,46.4010411 L40.3318033,40.0126061 Z" id="Shape" fill="#133D8D"></path>
                                     <path d="M2.71969489,40.1287595 C1.6141803,40.1573458 0.689076891,40.9580543 0.525313092,42.0280715 C0.361549292,43.0980887 1.00636204,44.128773 2.05483439,44.4728953 C3.00253453,44.808532 2.74675167,44.6915981 2.79092994,45.0768928 C2.83510784,45.4621874 2.63527288,46.5104297 2.29228457,47.7251894 C1.94929626,48.9399492 1.45852838,50.3339382 1.6749141,52.0460946 C1.89129983,53.7582509 3.37071064,55.5896085 5.47411697,56.2973077 C8.69251062,57.3798942 11.7352139,56.1644654 14.4497337,55.2751581 C16.7406371,54.5245657 18.6625946,54.1111713 19.9823229,54.1600858 C19.9450603,54.5499894 19.8576057,54.921866 20.077303,55.6236182 C20.3701638,56.5590895 21.5139503,57.5940624 22.5942749,57.8305321 C24.5268709,58.2535905 26.3247418,57.8126537 28.079374,57.2962266 C29.8340062,56.7795021 31.4976529,56.0770809 32.6859075,55.5306955 C33.485759,55.2311474 34.0465245,54.5182907 34.1376956,53.6851522 C34.2288666,52.8520138 33.8350595,52.0391738 33.1181526,51.5807583 C32.4012458,51.1223428 31.4822068,51.0957029 30.738816,51.5117891 C29.6954827,51.9915675 28.1989737,52.6019209 26.773398,53.0217828 C25.7406402,53.3259002 25.0825833,53.3431838 24.4701313,53.3702429 C24.4965662,53.0111896 24.5620127,52.7339455 24.3988963,52.1390173 C24.1496936,51.230159 23.1072205,50.1128566 22.0243945,49.81595 C18.7560755,48.9197292 15.6989147,50.1633693 13.0012877,51.0471756 C10.3036606,51.9310563 7.99471863,52.4220598 6.94630808,52.0693252 C5.96965999,51.7408249 6.25581945,51.8493958 6.21021253,51.4885584 C6.16460537,51.127721 6.34338051,50.1203276 6.68511288,48.9099537 C7.0268451,47.6996543 7.52196482,46.2962243 7.32622837,44.5890486 C7.13049192,42.8817986 5.71020346,41.0078081 3.62200557,40.2681435 C3.33392768,40.1626006 3.02699679,40.1151876 2.71969489,40.1287595 Z" id="Path" fill="#3DB200"></path>
                                  </g>
                               </g>
                            </g>
                         </svg>