<svg height="512pt" viewBox="-149 0 512 512" width="512pt" xmlns="http://www.w3.org/2000/svg"><path d="m.164062 186.066406s-.2148432 45.972656-.1523432 98.929688c0 11.886718 9.6367192 21.523437 21.5273432 21.523437 11.886719 0 21.523438-9.636719 21.523438-21.523437 0-.078125.257812-98.929688.257812-98.929688l-21.652343-16.699218zm0 0" fill="#80391b"/><path d="m125.367188 100.265625-.417969-3.769531-38.753907.003906-.355468 4.339844c-.941406 11.566406 8.1875 21.472656 19.792968 21.472656 11.832032 0 21.042969-10.285156 19.734376-22.046875zm0 0" fill="#80391b"/><path d="m134.65625 512c-13.523438 0-24.484375-10.960938-24.484375-24.484375v-194.996094c0-13.523437 10.960937-24.484375 24.484375-24.484375s24.484375 10.960938 24.484375 24.484375v194.996094c0 13.519531-10.964844 24.484375-24.484375 24.484375zm0 0" fill="#55696e"/><path d="m75.941406 512c-13.519531 0-24.484375-10.960938-24.484375-24.484375v-194.996094c0-13.523437 10.964844-24.484375 24.484375-24.484375 13.523438 0 24.488282 10.960938 24.488282 24.484375v194.996094c0 13.519531-10.964844 24.484375-24.488282 24.484375zm0 0" fill="#748488"/><path d="m197.585938 115.359375c-10.65625-11.476563-25.050782-18.15625-40.554688-18.804687-1.304688-.054688 1.550781-.058594-32.078125-.058594 0 .023437.003906.042968.003906.066406.46875 10.464844-9.242187 19.378906-19.378906 19.378906-10.867187 0-18.910156-8.878906-19.382813-19.378906 0-.023438 0-.042969 0-.0625-10.503906 0-22.589843 0-36.511718 0-27.050782 0-49.167969 22.007812-49.304688 49.058594-.085937 16.980468-.15625 29.828125-.210937 40.507812h43.15625c.058593-22.652344.105469-40.242187.105469-40.292968.015624-3.429688 2.820312-6.222657 6.253906-6.222657h1.777344v152.96875h107.679687v-152.242187c6.632813 2.105468 11.53125 8.660156 11.507813 16.210937l-.101563 27.539063 19.792969 11.84375 23.257812-11.554688.101563-27.671875c.050781-15.371093-5.667969-30.03125-16.113281-41.285156zm0 0" fill="#e64937"/><path d="m170.644531 184.027344-.070312 10.476562h-58.730469c-11.886719 0-21.523438 9.636719-21.523438 21.527344 0 11.886719 9.636719 21.523438 21.523438 21.523438h80.113281c11.832031 0 21.445313-9.546876 21.523438-21.378907l.214843-31.859375zm0 0" fill="#80391b"/><path d="m152.320312 88.78125h-11.957031c-3.558593 0-6.515625 2.746094-6.78125 6.292969l-11.023437 147.574219c-.292969 3.945312 2.828125 7.308593 6.785156 7.308593h34c3.953125 0 7.074219-3.363281 6.78125-7.308593l-11.023438-147.574219c-.265624-3.546875-3.222656-6.292969-6.78125-6.292969zm0 0" fill="#b4d7dc"/><path d="m146.214844 42.132812c0 23.269532-18.863282 42.132813-42.132813 42.132813s-42.132812-18.863281-42.132812-42.132813c0-23.269531 18.863281-42.132812 42.132812-42.132812s42.132813 18.863281 42.132813 42.132812zm0 0" fill="#80391b"/></svg>